inDegrees=yes
name=ik_S46_A11_T03
DataType=double
version=3
OpenSimVersion=4.3-2021-08-27-4bc7ad9
endheader
time	pelvis_tilt	pelvis_list	pelvis_rotation	pelvis_tx	pelvis_ty	pelvis_tz	hip_flexion_r	hip_adduction_r	hip_rotation_r	knee_angle_r	knee_angle_r_beta	ankle_angle_r	subtalar_angle_r	mtp_angle_r	hip_flexion_l	hip_adduction_l	hip_rotation_l	knee_angle_l	knee_angle_l_beta	ankle_angle_l	subtalar_angle_l	mtp_angle_l	lumbar_extension	lumbar_bending	lumbar_rotation	arm_flex_r	arm_add_r	arm_rot_r	elbow_flex_r	pro_sup_r	wrist_flex_r	wrist_dev_r	arm_flex_l	arm_add_l	arm_rot_l	elbow_flex_l	pro_sup_l	wrist_flex_l	wrist_dev_l
3.800000000000003	0.7230212839527775	-0.4715120412986586	42.69459928825154	0	0.9399999999999999	0	45.46828966238466	-10.17451533777515	-10.29621901112467	54.26260533951812	0.9470611238848468	0	0	0	45.46828966238466	-10.17451533777515	-10.29621901112467	54.26260533951812	0.9470611238848468	0	0	0	-0.4009845643256381	-0.7600223185624849	12.61878711217397	5.448353853601037	-3.254782923285929	-5.222167887232505	10.09967599688225	89.0179931736876	0	0	4.382641680339766	-2.278230643726087	0.2220074077704842	-0.1826047935358048	110.3901842524215	0	0
3.820000000000003	0.7117930752383163	-0.485663622739637	42.89087720097292	0	0.9399999999999999	0	45.46811118847381	-10.17428414601915	-10.29596687466033	54.2627944024576	0.9470644236556341	0	0	0	45.46811118847381	-10.17428414601915	-10.29596687466033	54.2627944024576	0.9470644236556341	0	0	0	-0.4176505705715626	-0.7546139493130299	12.45191442623206	6.904188628424396	-4.737335185049811	-3.968074122037022	10.46589781538719	86.35508605224585	0	0	4.28802240419827	-2.305235220927607	0.1982316692995214	-0.1739334244743571	110.4029421797875	0	0
3.840000000000003	0.7599076824798386	-0.4726302287371897	42.9221935428706	0	0.9399999999999999	0	45.46211836330895	-10.16907392183178	-10.28934893732355	54.27109203410706	0.9472092446480348	0	0	0	45.46211836330895	-10.16907392183178	-10.28934893732355	54.27109203410706	0.9472092446480348	0	0	0	-0.3666466720833104	-0.7763242151889248	12.4112707257908	8.443408618422032	-6.546700144705918	-3.103920078248751	12.46754535978518	82.4237945851271	0	0	4.187158986785744	-2.410850285344019	0.2352962815048944	-0.3232460341765351	110.3876834039891	0	0
3.860000000000003	0.8071739523773546	-0.4392490274271144	42.83417423959757	0	0.9399999999999999	0	45.45670499947892	-10.16439465074018	-10.28339181587484	54.27857609601163	0.9473398661696928	0	0	0	45.45670499947892	-10.16439465074018	-10.28339181587484	54.27857609601163	0.9473398661696928	0	0	0	-0.2970254162303122	-0.7869700254801213	12.49670401661282	10.21526316040277	-8.524857476340838	-2.907843263715452	14.66659081515131	78.88982089772576	0	0	4.103661672292996	-2.497254522229829	0.2725067929965492	-0.4829020731111542	110.3770104645894	0	0
3.880000000000003	0.8584580151381163	-0.4105498502154744	42.64934696711298	0	0.9399999999999999	0	45.4519491529619	-10.1603030706903	-10.27817287019267	54.28513888743055	0.9474544084880745	0	0	0	45.4519491529619	-10.1603030706903	-10.27817287019267	54.28513888743055	0.9474544084880745	0	0	0	-0.2281505210519876	-0.807666305620529	12.71177626566341	12.28799042735202	-10.52425481953911	-3.537007393030499	16.81847573611882	75.82806632709486	0	0	4.073706667295895	-2.583137065907953	0.3082343557570328	-0.5453293045621678	110.3824281379452	0	0
3.900000000000003	0.9321080856978976	-0.3994500012321078	42.32644544368935	0	0.9399999999999999	0	45.45168701128957	-10.15997806906331	-10.27781116940396	54.2854162919473	0.9474592501102517	0	0	0	45.45168701128957	-10.15997806906331	-10.27781116940396	54.2854162919473	0.9474592501102517	0	0	0	-0.1651107141468249	-0.8640711881030334	13.07135508085644	14.61999801411178	-12.46621196800093	-4.748780624604009	19.19254558721566	72.66904694982894	0	0	3.999344883446511	-2.76220166001215	0.3662546377760333	-0.715098368630004	110.454938704623	0	0
3.920000000000003	1.005978886134075	-0.3631358972362511	42.08661295359363	0	0.9399999999999999	0	45.45080701444238	-10.15889696434375	-10.27660298450709	54.28635055870907	0.9474755561413366	0	0	0	45.45080701444238	-10.15889696434375	-10.27660298450709	54.28635055870907	0.9474755561413366	0	0	0	-0.0837234611067678	-0.8901395827233834	13.30266881910338	14.48653517604589	-12.50819248813198	-4.579053461518579	24.20346599316099	67.94328007529977	0	0	3.962259291422527	-2.911101679598492	0.3380438614858692	-0.7835346012057417	110.5151691441881	0	0
3.940000000000003	1.047218481294986	-0.3177194618357649	41.9415791972942	0	0.9399999999999999	0	45.45053136256685	-10.15856065630526	-10.27622627701392	54.28664520068845	0.9474806986139912	0	0	0	45.45053136256685	-10.15856065630526	-10.27622627701392	54.28664520068845	0.9474806986139912	0	0	0	-0.02172869867182783	-0.8853672091671272	13.41321714039243	14.37185487826216	-12.55134054264093	-4.441648521153653	26.93911869086449	65.48375257732557	0	0	3.842745189480741	-2.948685257504826	0.3079335964897327	-0.773462991577308	110.509470096802	0	0
3.960000000000003	1.240836218662629	-0.1602156792430601	41.58538654699089	0	0.9399999999999999	0	45.44672226856527	-10.15538666420884	-10.27212196885175	54.29195840475268	0.9475734315187425	0	0	0	45.44672226856527	-10.15538666420884	-10.27212196885175	54.29195840475268	0.9475734315187425	0	0	0	0.2342133264865588	-0.9055788502406044	13.62127559823188	16.66023349515333	-14.45514477500547	-5.596009123750274	29.9568627903044	61.8299619755369	0	0	3.644570095520331	-3.213170321288663	0.1287188865393536	-0.9741339869739947	110.5450797981509	0	0
3.980000000000003	1.347135970497479	-0.1101668967566064	41.56757666354432	0	0.9399999999999999	0	45.44593804161989	-10.15444119451516	-10.27105613983769	54.2927931416984	0.9475880004268333	0	0	0	45.44593804161989	-10.15444119451516	-10.27105613983769	54.2927931416984	0.9475880004268333	0	0	0	0.3450809033616455	-0.9326795431615766	13.70733018012249	16.44493856009824	-14.60581794240723	-5.44541206580914	36.04066371827987	57.48326442462576	0	0	3.578759845385044	-3.374627088347591	0.2013961932552518	-0.9812161373096266	110.5096048114402	0	0
4.000000000000003	1.449522554104064	-0.01266740520429242	40.87222270096513	0	0.9399999999999999	0	45.44075618263651	-10.15005635351404	-10.26541251135069	54.2998832178158	0.9477117455992989	0	0	0	45.44075618263651	-10.15005635351404	-10.26541251135069	54.2998832178158	0.9477117455992989	0	0	0	0.4830830573153271	-0.9768703800402507	14.48705856299932	27.89495726632337	-21.68398580965016	-7.09132448483621	38.67249610238726	50.38003354889707	0	0	3.506312311376961	-3.499904986738396	0.3108144888438025	-1.057022555860371	110.4323230011127	0	0
4.020000000000002	1.560438596019081	0.08170433325850802	40.93450115054042	0	0.9399999999999999	0	45.4406376788709	-10.14991630203573	-10.26525327200517	54.30000998547671	0.9477139581123668	0	0	0	45.4406376788709	-10.14991630203573	-10.26525327200517	54.30000998547671	0.9477139581123668	0	0	0	0.628751183029131	-0.9775086850490489	14.52311977317001	27.56346733523202	-21.66816763655283	-7.213581063099373	38.67237816989357	50.35967113847829	0	0	3.385694434387966	-3.573795929052077	0.452143044852477	-1.093120185363589	110.3336082703238	0	0
4.040000000000002	1.629777089868718	0.1954715910543597	41.40880204450492	0	0.9399999999999999	0	45.43391064611527	-10.14439118182991	-10.25804573190597	54.3092697528429	0.9478755715408756	0	0	0	45.43391064611527	-10.14439118182991	-10.25804573190597	54.3092697528429	0.9478755715408756	0	0	0	0.8061315740535473	-0.9984555389992749	14.0945410826881	33.41769338971386	-25.17815978712053	-3.226332105544728	47.76611708417973	41.28304527580671	0	0	3.441220854374774	-3.614680829837409	0.5985401934811498	-1.287966852003191	110.1654740202566	0	0
4.060000000000001	1.677338995989053	0.2588836252873685	41.69139430160691	0	0.9399999999999999	0	45.43027780730043	-10.14151153719973	-10.25423275325115	54.31432885039204	0.9479638694502877	0	0	0	45.43027780730043	-10.14151153719973	-10.25423275325115	54.31432885039204	0.9479638694502877	0	0	0	0.8868002749558184	-1.008909831403489	13.86264462225279	36.17706402245209	-26.54169479077111	-0.3029638887163441	49.42292601667555	37.6725063291543	0	0	3.4639057356873	-3.636983002030258	0.6413413228784041	-1.287138827496303	110.1081633491581	0	0
